Coordinates
version=1
nRows=13
nColumns=36
inDegrees=yes

Units are S.I. units (second, meters, Newtons, ...)
If the header above contains a line with 'inDegrees', this indicates whether rotational values are in degrees (yes) or radians (no).

endheader
time	pelvis_tilt	pelvis_list	pelvis_rotation	pelvis_tx	pelvis_ty	pelvis_tz	hip_flexion_r	hip_adduction_r	hip_rotation_r	knee_angle_r	knee_angle_r_beta	ankle_angle_r	subtalar_angle_r	mtp_angle_r	hip_flexion_l	hip_adduction_l	hip_rotation_l	knee_angle_l	knee_angle_l_beta	ankle_angle_l	subtalar_angle_l	mtp_angle_l	lumbar_extension	lumbar_bending	lumbar_rotation	arm_flex_r	arm_add_r	arm_rot_r	elbow_flex_r	pro_sup_r	arm_flex_l	arm_add_l	arm_rot_l	elbow_flex_l	pro_sup_l
     44.90000000	      7.52730966	     -1.32072093	    -12.43039743	      0.54054861	      0.93894908	      0.73555461	     19.80169276	      2.22304892	      4.29793689	     54.19080790	      0.94580802	      7.89795749	    -12.64111420	     -7.49999987	     -6.71660070	      1.71818557	     -1.99490099	     13.71814158	      0.23942674	     14.68841413	     -9.72155217	     -7.49999987	    -17.08516948	     -3.29234434	      3.60645245	      1.17942957	     -8.21249471	     -1.74919332	     16.35106180	     96.76362607	     17.46720625	    -11.26656806	     14.12581801	     20.39528100	     95.25450486
     44.91666670	      7.30752332	     -1.69548703	    -12.57703224	      0.54000939	      0.94049284	      0.73566077	     20.82729782	      2.68852933	      4.18312264	     49.32433417	      0.86087203	      7.90107518	    -12.56826704	     -7.49999987	     -8.23152005	      1.48474847	     -2.14311651	     12.84860647	      0.22425049	     15.16058682	     -9.19329521	     -7.49999987	    -17.17695694	     -2.86656785	      3.02221119	      0.93689073	     -8.44404014	     -1.54862386	     15.74763081	     96.26913641	     17.91521741	    -11.75509669	     14.09298118	     21.03152994	     94.86158973
     44.93333330	      7.02876926	     -1.91796016	    -12.64772057	      0.54012568	      0.93754946	      0.73483016	     21.75789587	      2.87870882	      4.07954161	     44.44728576	      0.77575148	      7.58465305	    -12.52690942	     -7.49999987	     -9.42684236	      1.37496912	     -2.18506961	     12.27006768	      0.21415308	     15.65268624	     -8.84577439	     -7.49999987	    -17.16550380	     -2.61186419	      2.48566868	      0.71484448	     -8.62868288	     -1.44549871	     15.15024540	     95.83979372	     18.39490495	    -12.26707131	     14.21287577	     21.87485183	     94.65534178
     44.95000000	      6.71794350	     -2.04230926	    -12.58713999	      0.54074549	      0.93043457	      0.73363362	     22.69182887	      2.89362955	      3.92907882	     39.82685707	      0.69510979	      7.17380543	    -12.50605557	     -7.49999987	    -10.38621999	      1.35528597	     -2.14254127	     11.91954194	      0.20803525	     16.27936945	     -8.79146393	     -7.49999987	    -17.12691705	     -2.41989168	      1.85245902	      0.26166400	     -8.78734168	     -1.63442635	     15.30890383	     94.49219487	     18.93213281	    -12.69225123	     14.23221624	     22.53900043	     93.43173128
     44.96666670	      6.07835090	     -1.84370341	    -12.33990268	      0.54036797	      0.92539906	      0.73260123	     24.08297227	      2.54603519	      3.50009574	     35.57490964	      0.62089930	      7.05879262	    -11.94330088	     -7.49999987	    -10.75816846	      1.56932984	     -2.13892182	     11.84456088	      0.20672659	     17.44928803	     -8.32349076	     -7.49999987	    -16.61234135	     -2.47989347	      1.16957016	      0.29924087	     -8.81025253	     -1.81579494	     14.16906715	     94.88531193	     19.41563640	    -13.21632959	     14.59881135	     23.41771254	     94.09760008
     44.98333330	      5.28985187	     -1.72457810	    -11.97275692	      0.53866320	      0.92349784	      0.73146684	     25.41740679	      2.30062007	      2.83963416	     31.27517794	      0.54585483	      6.89748460	    -11.39127725	     -7.49999987	    -11.03804946	      1.63822819	     -2.48827834	     11.81016377	      0.20612624	     18.92879989	     -7.45270523	     -7.49999987	    -15.93830358	     -2.26774225	     -0.03403001	      0.12740413	     -8.91313628	     -1.76074548	     14.37004789	     94.33123948	     19.35869298	    -13.83455705	     14.57922350	     24.20271353	     93.62168616
     45.00000000	      4.32042529	     -1.46544672	    -11.40335621	      0.53618102	      0.92280708	      0.73001865	     26.87111150	      1.85965448	      1.80562388	     27.19117976	      0.47457561	      7.11875755	    -10.35275088	     -7.49999987	    -11.12462724	      1.79510680	     -2.56497486	     11.81036536	      0.20612976	     20.26256730	     -6.77866730	     -7.49999987	    -15.02682695	     -2.09537711	     -1.29596835	      0.16047682	     -8.93539123	     -1.81388702	     13.96479949	     94.04286136	     19.21497452	    -14.38485996	     14.53793193	     24.98663876	     93.26690821
     45.01666670	      3.25091524	     -1.21475462	    -10.73489054	      0.53495308	      0.92164655	      0.72886753	     28.31601642	      1.44831032	      0.65665423	     23.46842213	      0.40960124	      7.67427972	     -8.98137071	     -7.49999987	    -11.10384983	      1.88559919	     -2.72889496	     11.88922609	      0.20750614	     21.47240968	     -6.01366924	     -7.49999987	    -13.94306756	     -1.80615101	     -2.61398471	      0.20446023	     -9.01921354	     -1.77551821	     13.47326760	     93.69998679	     18.93691032	    -14.81451143	     14.49964254	     25.63098043	     92.83826499
     45.03333330	      2.10754711	     -1.04754472	     -9.97596342	      0.53601549	      0.91930483	      0.72842071	     29.75429617	      1.15242805	     -0.46722640	     20.40569252	      0.35614652	      8.52349526	     -7.27211825	     -7.49999987	    -10.88122642	      1.81479926	     -2.93244347	     12.16877919	      0.21238526	     22.57962368	     -5.38364830	     -7.49999987	    -12.76714138	     -1.36628894	     -3.92854555	      0.30128125	     -9.20044105	     -1.36226941	     12.77802349	     93.60086024	     18.60918677	    -15.12806087	     14.47680024	     26.04317622	     92.63858872
     45.05000000	      1.06873392	     -1.10641424	     -9.25053427	      0.53946495	      0.91415773	      0.72852985	     30.98925105	      1.14014605	     -1.20603337	     18.32139526	      0.31976867	      9.18084293	     -6.08606776	     -7.49999987	    -10.65168404	      1.49448911	     -3.19298092	     12.60577349	      0.22001225	     23.66611845	     -5.12314238	     -7.49999987	    -11.76759041	     -0.65624848	     -4.68383047	      0.00016868	     -9.52346768	     -1.47615271	     12.57060124	     93.60693439	     18.55776151	    -14.96466322	     14.55301543	     26.16675170	     92.69995761
     45.06666670	      0.01898446	     -1.15677552	     -8.64536107	      0.54308264	      0.90874252	      0.72925398	     32.29373702	      1.11229917	     -2.07444012	     17.79521410	      0.31058508	     10.45255088	     -3.99625553	     -7.49999987	    -10.14036039	      1.09592499	     -4.01980577	     13.41254994	      0.23409316	     25.24437634	     -4.14063787	     -7.49999987	    -10.56479097	      0.01514787	     -5.62653418	      0.10824752	     -9.74435088	     -1.58673907	     11.69860608	     93.78290367	     18.32545231	    -14.81179549	     14.50276414	     25.97214572	     92.90143390
     45.08333330	     -0.35085057	     -1.51392985	     -8.32703434	      0.54463158	      0.90558246	      0.73076480	     32.60213032	      1.53999777	     -2.26534043	     18.37891159	      0.32077252	     10.45977726	     -3.78105276	     -7.49999987	    -10.35763269	      0.57797354	     -4.64046248	     14.03238738	      0.24491136	     26.13171464	     -4.49749035	     -7.49999987	    -10.36992657	      0.89971443	     -5.91122342	      0.13153573	    -10.18098918	     -1.63021066	     11.46397506	     93.80588859	     18.44925664	    -14.41045746	     14.52376494	     26.02058158	     92.93850037
     45.10000000	     -0.95185044	     -1.96370109	     -7.89922827	      0.54465888	      0.90545712	      0.73296310	     32.71982635	      1.99189002	     -3.05179978	     19.61044398	      0.34226682	      9.98677151	     -2.97168625	     -7.49999987	    -10.03703899	     -0.22362284	     -5.73426743	     15.11681187	      0.26383814	     27.61897083	     -3.38446621	     -7.49999987	     -9.74168052	      1.96127833	     -6.30782493	      0.50051925	    -10.57000119	     -1.69013542	     10.49182171	     93.92976358	     18.55601648	    -13.82588520	     14.33696230	     25.56941582	     93.05479153
